<svg width="46" height="46" viewBox="0 0 46 46" fill="none" xmlns="http://www.w3.org/2000/svg">
<path d="M42.2607 0.132999L13.5134 8.62283C12.9299 8.80615 12.42 9.1708 12.0579 9.6638C11.6958 10.1568 11.5004 10.7524 11.5 11.3641V34.8515C10.5586 34.623 9.59375 34.5048 8.625 34.4993C3.86328 34.4993 0 37.0744 0 40.2497C0 43.4249 3.86328 46 8.625 46C13.3867 46 17.25 43.4249 17.25 40.2497V19.2538L40.25 12.5151V29.1021C39.3087 28.8728 38.3438 28.7543 37.375 28.749C32.6133 28.749 28.75 31.3241 28.75 34.4993C28.75 37.6746 32.6133 40.2497 37.375 40.2497C42.1367 40.2497 46 37.6755 46 34.4993V2.87249C45.9996 2.42113 45.8929 1.9762 45.6886 1.57373C45.4843 1.17125 45.1881 0.822528 44.824 0.555786C44.4599 0.289043 44.0382 0.111774 43.5928 0.0383237C43.1475 -0.0351262 42.6912 -0.00269283 42.2607 0.132999Z" fill="#0059DE"/>
<path d="M17.1869 13.5748L17.25 16.2046L40.3308 9.63599L40.2767 7.38184C39.9182 6.03721 38.2108 6.2411 37.4019 6.51112C31.8664 8.02236 20.4313 11.1663 18.9753 11.6524C17.5193 12.1384 17.1763 13.1365 17.1869 13.5748Z" fill="white" stroke="white"/>
</svg>
