<svg width="54" height="38" viewBox="0 0 54 38" fill="none" xmlns="http://www.w3.org/2000/svg">
<path d="M6 33.2897C9.2 36.0897 13 36.4563 14.5 36.2896L42.5 36.2899C46 36.2896 50 33.3333 51 31C52 28.6667 51.8428 24.6071 50 21.2899C47.5001 16.7899 43.1671 16.7897 40.5004 16.7897H40.5C40.6667 15.123 39.8 10.5897 35 5.78965C30.2 0.989652 23 1.64304 19 4.50052C15.5 7.00052 13.3333 10.9563 13 12.7897C11.3333 12.9563 7.4 13.9897 5 16.7897C2.6 19.5897 2 22.623 2 23.7897C2 25.7897 2.8 30.4897 6 33.2897Z" stroke="#0059DE" stroke-width="3"/>
</svg>
