<svg width="50" height="49" viewBox="0 0 50 49" fill="none" xmlns="http://www.w3.org/2000/svg">
<path d="M45 26.5C45 30.9501 43.6804 35.3002 41.2081 39.0003C38.7357 42.7004 35.2217 45.5843 31.1104 47.2873C26.999 48.9903 22.475 49.4358 18.1105 48.5677C13.7459 47.6995 9.73678 45.5566 6.5901 42.4099C3.44342 39.2632 1.3005 35.2541 0.432331 30.8895C-0.435836 26.525 0.00973881 22.001 1.71271 17.8896C3.41568 13.7783 6.29956 10.2643 9.99967 7.79193C13.6998 5.3196 18.0499 4 22.5 4V6.83881C18.6114 6.83881 14.8101 7.99191 11.5768 10.1523C8.34356 12.3127 5.82353 15.3834 4.33543 18.976C2.84732 22.5686 2.45796 26.5218 3.21659 30.3357C3.97522 34.1496 5.84777 37.6529 8.59744 40.4026C11.3471 43.1522 14.8504 45.0248 18.6643 45.7834C22.4782 46.542 26.4314 46.1527 30.024 44.6646C33.6166 43.1765 36.6873 40.6564 38.8477 37.4232C41.0081 34.1899 42.1612 30.3886 42.1612 26.5H45Z" fill="#0059DE"/>
<path d="M22 27V2.05277C42.0436 0.923079 47.6848 18.2136 48 27H22Z" stroke="#0059DE" stroke-width="2.5"/>
</svg>
