<svg width="52" height="47" viewBox="0 0 52 47" fill="none" xmlns="http://www.w3.org/2000/svg">
<path d="M7.5 8.99981C3.1 9.79981 2 13.9998 2 15.9998V37.9998C2 44.3998 6.66667 45.3331 9 44.9998H43.5C47.1 44.5998 48.6667 41.8331 49 40.4998V14.9998C48.2 10.1998 43.6667 8.99981 41.5 8.99981H40M7.5 8.99981L29.5 3.49981C31.8333 2.66648 37 1.49981 39 3.49981C39.3333 3.66641 40 4.99966 40 8.99981M7.5 8.99981H40" stroke="#0059DE" stroke-width="3"/>
<path d="M42 26C42 24.3431 43.3431 23 45 23H52V32H45C43.3431 32 42 30.6569 42 29V26Z" fill="#0059DE"/>
<path d="M16 25.5714H24.5714V17H16V25.5714ZM18.8571 19.8571H21.7143V22.7143H18.8571V19.8571ZM27.4286 17V25.5714H36V17H27.4286ZM33.1429 22.7143H30.2857V19.8571H33.1429V22.7143ZM16 37H24.5714V28.4286H16V37ZM18.8571 31.2857H21.7143V34.1429H18.8571V31.2857ZM34.5714 28.4286H36V34.1429H31.7143V32.7143H30.2857V37H27.4286V28.4286H31.7143V29.8571H34.5714V28.4286ZM34.5714 35.5714H36V37H34.5714V35.5714ZM31.7143 35.5714H33.1429V37H31.7143V35.5714Z" fill="#0059DE"/>
</svg>
