<svg width="123" height="154" viewBox="0 0 123 154" fill="none" xmlns="http://www.w3.org/2000/svg">
<path d="M5.05641 32C13.8564 29.6 44.7231 13 59.0564 5C71.0564 11.4 103.39 25.6667 118.056 32C114.856 117.6 77.3897 145.667 59.0564 149C6.25641 126.6 1.05641 61.6667 5.05641 32Z" stroke="#005ADF" stroke-width="8"/>
<path d="M55.8011 49.6353C57.2979 45.0287 63.8149 45.0287 65.3117 49.6352L68.0776 58.1479C68.747 60.208 70.6668 61.6028 72.8329 61.6028H81.7836C86.6273 61.6028 88.6412 67.8009 84.7226 70.6479L77.4813 75.909C75.7288 77.1823 74.9955 79.4391 75.6649 81.4992L78.4308 90.0119C79.9276 94.6184 74.6552 98.4491 70.7366 95.6021L63.4953 90.341C61.7429 89.0677 59.3699 89.0677 57.6175 90.3409L50.3762 95.6021C46.4576 98.4491 41.1852 94.6185 42.6819 90.0119L45.4479 81.4992C46.1173 79.4391 45.384 77.1823 43.6315 75.9091L36.3902 70.6479C32.4717 67.8009 34.4855 61.6028 39.3291 61.6028H48.2799C50.446 61.6028 52.3658 60.208 53.0352 58.1479L55.8011 49.6353Z" fill="#005ADF"/>
</svg>
